<?xml version="1.0" encoding="utf-8"?>
<!-- Generator: Adobe Illustrator 26.0.3, SVG Export Plug-In . SVG Version: 6.00 Build 0)  -->
<svg version="1.1" id="Layer_1" xmlns="http://www.w3.org/2000/svg" xmlns:xlink="http://www.w3.org/1999/xlink" x="0px" y="0px"
	 viewBox="0 0 286 287" style="enable-background:new 0 0 286 287;" xml:space="preserve">
<g>
	<path d="M163.39,9.5l-1.62-0.19c-0.2-2.85-1.62-4.55-3.92-4.82c-1.83-0.21-3.31,0.71-3.49,2.3c-0.15,1.28,0.55,2.1,2.38,3.26
		c1.92,1.23,3.87,2.46,5.22,3.85c1.13,1.19,1.84,2.38,1.66,4.03c-0.3,2.59-2.74,4.74-7.49,4.2c-2.59-0.3-4.68-0.99-6.46-2.06
		l0.19-4.19l1.75,0.2c0.45,3.23,1.81,4.79,4.34,5.08c2.33,0.27,3.71-0.69,3.91-2.46c0.06-0.5,0.05-1.63-1.03-2.58
		c-2-1.76-4.64-2.73-6.58-4.7c-1.28-1.28-1.51-2.55-1.39-3.6c0.32-2.77,2.69-4.77,7.16-4.26c2.19,0.25,3.51,0.77,5.61,2.1
		L163.39,9.5z"/>
	<path d="M180.88,8.45l1.82,16.27c0.17,1.55,0.58,1.93,1.83,2.36L184.28,28l-8.62-2.38l0.25-0.91l0.35,0.1
		c1.65,0.45,2.6,0.28,2.83-0.56c0.1-0.35,0.01-1.23-0.09-2.15c-0.1-0.93-0.21-1.91-0.28-2.64l-6.37-1.75
		c-0.79,1.17-2.08,2.7-2.35,3.69c-0.24,0.89,0.33,1.78,1.98,2.24l0.1,0.03l-0.25,0.91l-6.52-1.8l0.25-0.91
		c0.92,0.12,1.61,0.01,2.13-0.29c0.58-0.31,1.1-0.73,2.59-2.75l7.24-9.74l-0.16-1.6L180.88,8.45z M173.16,16.58l5.43,1.5l-0.93-7.73
		L173.16,16.58z"/>
	<path d="M199.09,15.08l-0.38,0.86c-1.35-0.6-2.02-0.64-2.37,0.15c-0.16,0.36-0.18,0.78-0.1,1.97l0.48,6.29l3.71-2.64
		c1.13-0.79,1.67-1.22,1.96-1.55c0.19-0.23,0.37-0.44,0.5-0.73c0.36-0.82,0-1.55-1.21-2.18l0.38-0.86l5.64,2.52l-0.39,0.86
		c-0.7-0.31-1.3-0.38-1.8-0.23c-0.5,0.15-1.13,0.47-2.24,1.28l-6.56,4.7l-1.71,3.84c-0.72,1.61-0.3,2.34,1.19,3.01l0.46,0.2
		l-0.39,0.86l-8.48-3.78l0.38-0.86l0.7,0.31c1.66,0.74,2.37-0.01,2.94-1.31l1.51-3.39c-0.33-4.55-0.51-7.05-0.65-8.75
		c-0.15-1.74-0.3-1.92-0.55-2.32c-0.24-0.37-0.69-0.65-1.29-0.92l-0.29-0.13l0.39-0.86L199.09,15.08z"/>
	<path d="M227.15,31.63l-0.58,0.75l-0.27-0.21c-1.48-1.14-2.15-1.17-3.62,0.72l-2.69,3.47l6.73,5.23l3.02-3.89
		c1.1-1.41,0.8-2.24-0.4-3.17L229,34.26l0.58-0.75l7.17,5.56l-0.58,0.75l-0.44-0.34c-1.39-1.08-2.18-0.92-3.32,0.55l-6.92,8.92
		c-1.05,1.35-0.84,2.28,0.37,3.22c0.17,0.13,0.12,0.1,0.47,0.33l-0.58,0.75l-7.17-5.56l0.58-0.75l0.31,0.24
		c1.37,1.06,2.13,0.99,3.23-0.43l3.23-4.16l-6.73-5.23l-3.21,4.14c-1.08,1.39-1,2.19,0.56,3.4l0.19,0.15l-0.58,0.75L209,40.25
		l0.58-0.75l0.4,0.31c1.31,1.02,2.14,0.89,3.15-0.42l7.03-9.06c1.1-1.41,0.94-2.2-0.45-3.28l-0.29-0.23l0.58-0.75L227.15,31.63z"/>
	<path d="M251.05,54.36l-2.78,2.54l-0.98-1.07c0.84-1.77,0.66-3.45-0.83-5.08l-2.73-2.99l-5.24,4.79l2.06,2.25
		c1.61,1.77,2.7,1.98,4.09,1l1.17,1.28l-4.21,3.85l-1.17-1.28c1.19-1.23,1.04-2.45-0.08-3.67l-2.56-2.79l-3.88,3.55
		c-1.57,1.44-1.49,2.43,0.08,4.14c2.27,2.48,4.03,3.01,6.86,2.35l1.12,1.22l-3.94,2.24l-11.11-12.15l0.7-0.64l0.34,0.37
		c1.12,1.22,1.89,1.37,3.31,0.07l8.37-7.65c1.22-1.12,1.26-2.05,0.27-3.13l-0.44-0.49l0.7-0.64L251.05,54.36z"/>
	<path d="M259.96,66.77l-0.79,0.53l-0.34-0.5c-0.95-1.42-1.75-1.58-3.31-0.55l-9.01,6.02c-1.73,1.15-1.8,2.28-0.65,4.01
		c0.88,1.31,1.74,2,2.66,2.33s2.1,0.4,3.44,0.23l0.91,1.36l-4.47,1.59l-8.4-12.58l0.79-0.53l0.26,0.39c0.8,1.2,1.6,1.5,3.17,0.44
		l9.47-6.32c1.4-0.93,1.53-1.78,0.67-3.07l-0.23-0.35l0.79-0.53L259.96,66.77z"/>
	<path d="M270.03,84.93l-0.86,0.4l-0.26-0.55c-0.73-1.55-1.5-1.82-3.19-1.03l-9.8,4.62c-1.88,0.89-2.12,1.99-1.23,3.87
		c0.67,1.43,1.43,2.23,2.29,2.7c0.86,0.47,2.02,0.71,3.37,0.74l0.7,1.47l-4.66,0.92l-6.45-13.68l0.86-0.4l0.2,0.43
		c0.62,1.31,1.36,1.71,3.07,0.91l10.3-4.86c1.52-0.72,1.78-1.54,1.11-2.94l-0.18-0.38l0.86-0.4L270.03,84.93z"/>
	<path d="M260.07,110.6c-1.52-5.42,1.32-10.28,6.2-11.66c5.11-1.44,10.36,1.6,11.9,7.06c1.48,5.27-1.19,10.14-6.03,11.5
		C267.15,118.9,261.69,116.37,260.07,110.6z M270.18,113.82c4.51-1.27,8.03-4.17,6.97-7.94c-0.89-3.16-4.44-4.52-9.2-3.18
		c-4.94,1.39-7.81,4.68-6.86,8.07C262,113.99,265.62,115.1,270.18,113.82z"/>
	<path d="M269.99,134.71c-0.13-1.81,1.23-3.49,3.14-3.63c1.86-0.13,3.49,1.25,3.63,3.14c0.13,1.86-1.28,3.49-3.14,3.63
		S270.12,136.57,269.99,134.71z"/>
	<path d="M276.64,164.54l0.17-1.62c2.86-0.22,4.54-1.65,4.79-3.95c0.2-1.83-0.73-3.31-2.32-3.48c-1.28-0.14-2.1,0.57-3.25,2.4
		c-1.21,1.93-2.43,3.89-3.82,5.25c-1.18,1.14-2.37,1.86-4.02,1.68c-2.59-0.28-4.76-2.71-4.25-7.47c0.28-2.59,0.96-4.69,2.02-6.48
		l4.19,0.16l-0.19,1.75c-3.23,0.47-4.78,1.84-5.05,4.38c-0.25,2.33,0.71,3.7,2.49,3.89c0.5,0.05,1.64,0.04,2.57-1.04
		c1.75-2.01,2.7-4.66,4.66-6.62c1.28-1.29,2.54-1.52,3.59-1.41c2.77,0.3,4.79,2.66,4.31,7.13c-0.24,2.2-0.75,3.52-2.06,5.62
		L276.64,164.54z"/>
	<path d="M277.78,182.02l-16.25,1.91c-1.55,0.18-1.93,0.6-2.35,1.85l-0.91-0.25l2.32-8.63l0.91,0.25l-0.1,0.36
		c-0.44,1.65-0.26,2.6,0.57,2.82c0.36,0.1,1.22,0,2.15-0.1s1.91-0.22,2.64-0.3l1.72-6.37c-1.18-0.78-2.71-2.06-3.7-2.33
		c-0.89-0.24-1.78,0.34-2.22,1.99l-0.03,0.1l-0.91-0.25l1.76-6.53l0.91,0.25c-0.11,0.92,0,1.61,0.3,2.12
		c0.31,0.57,0.74,1.1,2.77,2.57l9.78,7.18l1.6-0.17L277.78,182.02z M269.61,174.35l-1.46,5.43l7.72-0.97L269.61,174.35z"/>
	<path d="M270.3,202.5l-0.87-0.39l0.25-0.55c0.7-1.56,0.41-2.33-1.3-3.09l-9.9-4.42c-1.9-0.85-2.89-0.31-3.73,1.59
		c-0.64,1.44-0.76,2.54-0.55,3.5c0.21,0.96,0.78,1.99,1.64,3.04l-0.67,1.49l-3.73-2.93l6.17-13.81l0.86,0.39l-0.19,0.43
		c-0.59,1.32-0.41,2.15,1.32,2.92l10.4,4.64c1.54,0.69,2.32,0.35,2.96-1.07l0.17-0.38l0.86,0.39L270.3,202.5z"/>
	<path d="M260.51,220.38l-0.79-0.52l0.13-0.2c1.13-1.71,0.98-2.41-0.51-3.39l-6.92-4.55c-1.17-0.77-2.08-1.15-2.74-1.2
		c-1.29-0.09-2.91,0.64-4.26,2.7c-1.33,2.02-1.45,3.64-0.82,4.94c0.5,1.02,1.39,1.95,2.36,2.59l5.6,3.68
		c1.98,1.3,3.25,1.38,4.35-0.29l0.23-0.35l0.79,0.52l-3.76,5.71l-0.79-0.52l0.12-0.18c1.14-1.74,0.68-2.7-0.71-3.61l-6.24-4.1
		c-3.96-2.6-4.84-5.95-2-10.26c1.23-1.87,2.71-3.31,4.26-3.84c1.51-0.52,3.13-0.36,6.43,1.8l5.89,3.87c1.67,1.1,2.41,0.89,3.4-0.63
		l0.23-0.35l0.79,0.52L260.51,220.38z M263.21,227.57l-1.56-5.43l0.45-0.68l2.86,3.45L263.21,227.57z"/>
	<path d="M244.4,240.88c-1.99,2.1-4.28,3.33-6.66,3.51c-2.38,0.18-4.65-0.82-6.49-2.56c-1.74-1.65-2.82-3.9-2.85-6.4
		c-0.03-2.45,1.08-4.88,2.92-6.83l7.05-7.44l0.69,0.65l-0.24,0.25c-0.8,0.84-0.95,1.27-0.92,1.74s0.48,1.1,1.32,1.9l7.88,7.47
		c1.43,1.36,2.15,1.21,3.44-0.15l0.16-0.17l0.69,0.65L244.4,240.88z M236.71,228.2c-1.17-1.1-2.53-1.23-4.03,0.35
		c-2.84,3-2.24,6.76,1.43,10.23c3.78,3.58,7.7,3.46,10.76,0.23l1.54-1.62L236.71,228.2z"/>
	<path d="M226.62,256.77l-14.07-8.37c-1.34-0.8-1.9-0.7-2.99,0.04l-0.58-0.75l7.1-5.44l0.58,0.75l-0.29,0.22
		c-1.36,1.04-1.79,1.9-1.26,2.59c0.22,0.29,0.97,0.75,1.77,1.23s1.65,0.99,2.28,1.37l5.24-4.02c-0.46-1.34-0.9-3.29-1.52-4.1
		c-0.56-0.73-1.62-0.81-2.98,0.23l-0.08,0.06l-0.58-0.75l5.37-4.11l0.58,0.75c-0.65,0.66-0.98,1.28-1.05,1.87
		c-0.1,0.64-0.08,1.32,0.63,3.72l3.4,11.65l1.37,0.84L226.62,256.77z M224.79,245.71l-4.47,3.43l6.72,3.93L224.79,245.71z"/>
	<path d="M211.68,266.65l-15.33-6.33l-0.05,0.03l4,7.58c0.82,1.56,1.7,2.76,4.05,1.52l0.56-0.29l0.44,0.84l-6.6,3.49l-0.44-0.84
		l0.56-0.29c1.49-0.79,1.78-1.75,0.96-3.3l-4.27-8.09c-0.53-1-1.9-2.59-3.05-4.75l1.19-0.63l17.28,7.08l0.05-0.02l-4.71-8.91
		c-1.03-1.95-2.22-2.19-4.49-1.08l-0.44-0.84l7.02-3.71l0.44,0.84l-0.35,0.18c-2.33,1.23-2.37,2.21-1.07,4.67l4.96,9.39
		c1.58,0.56,2.54,0.47,3.79,0.02l0.44,0.84L211.68,266.65z"/>
	<path d="M179.35,260.88c5.36-1.7,10.33,0.97,11.86,5.81c1.61,5.06-1.25,10.41-6.66,12.13c-5.21,1.66-10.18-0.85-11.7-5.64
		C171.29,268.24,173.63,262.69,179.35,260.88z M176.47,271.09c1.42,4.46,4.44,7.89,8.17,6.71c3.13-1,4.37-4.59,2.87-9.3
		c-1.55-4.89-4.94-7.65-8.3-6.58C176.03,262.93,175.04,266.58,176.47,271.09z"/>
	<path d="M155.75,279.49l1.61-0.23c0.92,2.71,2.72,3.99,5.02,3.66c1.82-0.26,3.02-1.52,2.79-3.11c-0.18-1.28-1.07-1.89-3.13-2.55
		c-2.17-0.7-4.37-1.39-6.03-2.4c-1.4-0.86-2.39-1.84-2.62-3.48c-0.37-2.58,1.45-5.28,6.18-5.96c2.58-0.37,4.78-0.23,6.77,0.36
		l0.88,4.1l-1.74,0.25c-1.26-3.01-2.96-4.17-5.49-3.81c-2.32,0.33-3.41,1.61-3.16,3.38c0.07,0.5,0.36,1.6,1.65,2.23
		c2.38,1.2,5.18,1.46,7.56,2.87c1.57,0.92,2.11,2.09,2.26,3.13c0.4,2.76-1.39,5.3-5.84,5.94c-2.19,0.31-3.59,0.14-5.96-0.61
		L155.75,279.49z"/>
	<path d="M137.22,272.23c1.81,0.07,3.33,1.6,3.26,3.51c-0.07,1.87-1.62,3.33-3.51,3.27c-1.87-0.07-3.33-1.65-3.27-3.51
		C133.77,273.63,135.35,272.16,137.22,272.23z"/>
	<path d="M106.86,275.59l1.59,0.35c-0.09,2.86,1.14,4.7,3.4,5.2c1.8,0.4,3.37-0.36,3.71-1.93c0.28-1.26-0.33-2.15-2.03-3.49
		c-1.79-1.42-3.6-2.84-4.8-4.37c-1-1.3-1.59-2.56-1.23-4.18c0.56-2.54,3.22-4.43,7.89-3.4c2.54,0.56,4.55,1.46,6.21,2.72l-0.62,4.15
		l-1.72-0.38c-0.12-3.26-1.3-4.95-3.79-5.5c-2.29-0.5-3.76,0.3-4.14,2.05c-0.11,0.49-0.22,1.62,0.76,2.67
		c1.8,1.96,4.33,3.19,6.06,5.35c1.14,1.41,1.24,2.7,1.01,3.72c-0.6,2.72-3.17,4.47-7.56,3.5c-2.16-0.48-3.41-1.13-5.36-2.67
		L106.86,275.59z"/>
	<path d="M89.36,274.82l-0.12-16.37c-0.01-1.56-0.38-1.98-1.58-2.54l0.34-0.88l8.33,3.26l-0.35,0.88l-0.34-0.13
		c-1.59-0.62-2.55-0.55-2.87,0.26c-0.13,0.34-0.14,1.22-0.14,2.15c0,0.93,0.01,1.92,0.01,2.66l6.15,2.41
		c0.9-1.09,2.35-2.47,2.72-3.42c0.33-0.86-0.14-1.81-1.73-2.43l-0.1-0.04l0.34-0.88l6.29,2.46l-0.35,0.88
		c-0.91-0.21-1.6-0.17-2.14,0.06c-0.6,0.24-1.17,0.62-2.86,2.47l-8.21,8.93l-0.01,1.61L89.36,274.82z M97.89,267.54l-5.24-2.05
		l0.12,7.78L97.89,267.54z"/>
	<path d="M71.94,266.35l0.47-0.82c1.28,0.74,1.94,0.85,2.37,0.09c0.2-0.34,0.26-0.76,0.3-1.95l0.17-6.3l-3.96,2.24
		c-1.21,0.67-1.78,1.04-2.11,1.34c-0.21,0.21-0.41,0.4-0.57,0.67c-0.45,0.77-0.16,1.55,0.98,2.3l-0.47,0.82l-5.35-3.09l0.47-0.82
		c0.66,0.38,1.25,0.51,1.77,0.41c0.51-0.1,1.18-0.35,2.36-1.04l7.01-4l2.1-3.65c0.88-1.53,0.54-2.3-0.88-3.12l-0.43-0.25l0.47-0.82
		L84.7,253l-0.47,0.82l-0.66-0.38c-1.57-0.91-2.35-0.23-3.06,1l-1.85,3.21c-0.14,4.56-0.22,7.07-0.26,8.77
		c-0.03,1.74,0.1,1.94,0.31,2.36c0.2,0.39,0.62,0.72,1.19,1.05l0.27,0.16l-0.47,0.82L71.94,266.35z"/>
	<path d="M45.75,247l0.65-0.68l0.25,0.24c1.35,1.29,2.02,1.39,3.68-0.34l3.03-3.17l-6.16-5.89l-3.4,3.56
		c-1.24,1.29-1.03,2.14,0.07,3.2l0.3,0.29l-0.65,0.68l-6.56-6.27l0.65-0.68l0.4,0.38c1.27,1.22,2.07,1.14,3.36-0.21l7.8-8.16
		c1.18-1.24,1.07-2.18-0.04-3.24c-0.15-0.15-0.11-0.11-0.44-0.38l0.65-0.68l6.56,6.27l-0.65,0.68l-0.29-0.27
		c-1.25-1.2-2.02-1.2-3.25,0.09l-3.63,3.8l6.16,5.89l3.62-3.78c1.22-1.27,1.22-2.07-0.21-3.44l-0.17-0.16l0.65-0.68l6.54,6.25
		l-0.65,0.68l-0.36-0.34c-1.2-1.15-2.03-1.11-3.18,0.09l-7.92,8.29c-1.24,1.29-1.16,2.09,0.11,3.31l0.27,0.25l-0.65,0.68L45.75,247z
		"/>
	<path d="M24.29,221.93l3.02-2.24l0.86,1.16c-1.02,1.67-1.01,3.37,0.31,5.14l2.41,3.25l5.71-4.23l-1.82-2.45
		c-1.42-1.92-2.49-2.25-3.96-1.42l-1.03-1.39l4.59-3.4l1.03,1.39c-1.31,1.1-1.29,2.33-0.3,3.66l2.25,3.04l4.23-3.13
		c1.71-1.27,1.73-2.26,0.35-4.12c-2-2.71-3.7-3.41-6.58-3.05l-0.99-1.33l4.15-1.83l9.8,13.23l-0.76,0.56l-0.3-0.4
		c-0.99-1.33-1.74-1.56-3.29-0.41l-9.11,6.75c-1.33,0.99-1.47,1.91-0.59,3.09l0.39,0.53l-0.76,0.56L24.29,221.93z"/>
	<path d="M16.71,208.68l0.84-0.44l0.28,0.54c0.8,1.51,1.58,1.75,3.23,0.88l9.59-5.05c1.84-0.97,2.03-2.08,1.06-3.92
		c-0.74-1.4-1.53-2.17-2.41-2.6c-0.88-0.43-2.05-0.61-3.4-0.58l-0.76-1.44l4.61-1.12l7.05,13.38l-0.84,0.44l-0.22-0.42
		c-0.67-1.28-1.44-1.65-3.11-0.77l-10.08,5.31c-1.49,0.79-1.71,1.61-0.98,2.99l0.2,0.37l-0.84,0.44L16.71,208.68z"/>
	<path d="M8.56,189.58l0.89-0.31l0.2,0.57c0.56,1.61,1.3,1.97,3.07,1.35l10.23-3.58c1.96-0.69,2.31-1.76,1.62-3.72
		c-0.52-1.49-1.19-2.37-2-2.92c-0.81-0.55-1.94-0.91-3.28-1.08l-0.54-1.54l4.73-0.43l5,14.27l-0.89,0.31l-0.16-0.45
		c-0.48-1.37-1.18-1.85-2.96-1.22l-10.75,3.77c-1.59,0.56-1.93,1.34-1.41,2.81l0.14,0.4l-0.89,0.31L8.56,189.58z"/>
	<path d="M21.14,165.08c0.95,5.55-2.38,10.09-7.38,10.95c-5.24,0.9-10.14-2.67-11.1-8.27c-0.92-5.39,2.24-9.96,7.19-10.81
		C14.96,156.08,20.13,159.17,21.14,165.08z M11.42,160.82c-4.61,0.79-8.43,3.31-7.76,7.17c0.55,3.24,3.94,4.96,8.82,4.12
		c5.06-0.87,8.25-3.84,7.66-7.32C19.57,161.51,16.08,160.02,11.42,160.82z"/>
	<path d="M13.74,140.04c-0.05,1.81-1.58,3.35-3.49,3.29c-1.87-0.06-3.35-1.6-3.29-3.49c0.06-1.87,1.63-3.35,3.49-3.29
		C12.32,136.6,13.8,138.18,13.74,140.04z"/>
	<path d="M10.18,109.71l-0.34,1.59c-2.86-0.08-4.69,1.17-5.17,3.44c-0.39,1.8,0.38,3.36,1.95,3.7c1.26,0.27,2.15-0.35,3.48-2.05
		c1.41-1.8,2.82-3.62,4.34-4.82c1.29-1.01,2.55-1.61,4.17-1.26c2.55,0.55,4.45,3.19,3.45,7.87c-0.54,2.54-1.43,4.56-2.68,6.23
		l-4.15-0.59l0.37-1.72c3.26-0.14,4.94-1.33,5.47-3.83c0.49-2.29-0.33-3.75-2.07-4.13c-0.49-0.1-1.62-0.21-2.67,0.77
		c-1.95,1.81-3.16,4.35-5.31,6.09c-1.4,1.15-2.69,1.25-3.72,1.03c-2.73-0.58-4.49-3.14-3.55-7.54c0.46-2.16,1.11-3.42,2.63-5.38
		L10.18,109.71z"/>
	<path d="M10.85,92.19l16.37-0.22c1.56-0.02,1.98-0.39,2.53-1.59l0.88,0.34l-3.21,8.35l-0.88-0.34l0.13-0.34
		c0.61-1.6,0.53-2.56-0.28-2.87c-0.34-0.13-1.22-0.13-2.15-0.12c-0.93,0.01-1.92,0.02-2.66,0.02l-2.37,6.16
		c1.09,0.9,2.48,2.33,3.44,2.7c0.86,0.33,1.8-0.15,2.42-1.75l0.04-0.1l0.88,0.34l-2.42,6.31l-0.88-0.34
		c0.21-0.91,0.16-1.6-0.08-2.14c-0.25-0.6-0.62-1.17-2.49-2.84l-8.98-8.15l-1.61,0L10.85,92.19z M18.19,100.67l2.02-5.25l-7.78,0.17
		L18.19,100.67z"/>
	<path d="M16.52,66.99l1.84,5.34l-0.41,0.7l-3.04-3.3L16.52,66.99z M19.6,74.02l0.82,0.48l-0.12,0.2c-1.03,1.77-0.85,2.45,0.69,3.36
		l7.15,4.18c1.2,0.7,2.14,1.04,2.79,1.05c1.29,0.03,2.87-0.79,4.11-2.93c1.22-2.09,1.25-3.71,0.56-4.97
		c-0.55-0.99-1.49-1.88-2.49-2.46l-5.79-3.38c-2.04-1.19-3.32-1.21-4.32,0.52l-0.21,0.36l-0.82-0.48l3.45-5.9l0.82,0.48l-0.11,0.18
		c-1.05,1.79-0.53,2.73,0.9,3.57l6.45,3.77c4.09,2.39,5.15,5.68,2.55,10.13c-1.13,1.93-2.53,3.45-4.05,4.06
		c-1.48,0.6-3.11,0.53-6.52-1.46l-6.08-3.55c-1.73-1.01-2.45-0.76-3.36,0.81L15.8,82.4l-0.82-0.48L19.6,74.02z"/>
	<path d="M34.6,52.69c1.88-2.2,4.1-3.55,6.46-3.86s4.69,0.58,6.61,2.21c1.82,1.55,3.02,3.75,3.19,6.24
		c0.16,2.45-0.82,4.93-2.56,6.98l-6.65,7.81l-0.72-0.61l0.22-0.26c0.75-0.88,0.88-1.32,0.83-1.78c-0.06-0.46-0.53-1.08-1.42-1.83
		l-8.27-7.04c-1.5-1.28-2.21-1.09-3.42,0.33l-0.15,0.18L28,60.44L34.6,52.69z M42.95,64.96c1.22,1.04,2.59,1.1,4-0.56
		c2.68-3.14,1.88-6.87-1.97-10.14c-3.96-3.38-7.87-3.05-10.76,0.34l-1.45,1.7L42.95,64.96z"/>
	<path d="M51.53,35.88l14.49,7.62c1.38,0.72,1.93,0.6,2.98-0.19l0.61,0.72l-6.8,5.8l-0.62-0.72l0.28-0.24
		c1.3-1.11,1.69-1.99,1.12-2.65c-0.24-0.28-1.01-0.7-1.83-1.13c-0.82-0.44-1.7-0.9-2.35-1.25l-5.02,4.29
		c0.53,1.31,1.07,3.24,1.73,4.02c0.6,0.7,1.66,0.73,2.96-0.38l0.08-0.07l0.61,0.72l-5.14,4.39l-0.62-0.72
		c0.62-0.7,0.91-1.33,0.95-1.92c0.07-0.65,0.01-1.32-0.83-3.68l-4-11.45l-1.41-0.76L51.53,35.88z M53.93,46.84l4.28-3.65l-6.92-3.57
		L53.93,46.84z"/>
	<path d="M65.89,25.24l15.64,5.5l0.04-0.03l-4.4-7.36c-0.9-1.51-1.84-2.67-4.12-1.3l-0.54,0.32l-0.49-0.81l6.41-3.84l0.49,0.81
		l-0.54,0.32c-1.45,0.86-1.69,1.84-0.79,3.35l4.7,7.85c0.58,0.97,2.04,2.49,3.3,4.59l-1.15,0.69l-17.63-6.15l-0.04,0.03l5.17,8.64
		c1.13,1.9,2.34,2.06,4.55,0.83l0.49,0.81l-6.82,4.08l-0.49-0.81l0.34-0.2c2.26-1.35,2.25-2.33,0.82-4.72l-5.46-9.12
		c-1.6-0.48-2.56-0.34-3.78,0.18l-0.49-0.81L65.89,25.24z"/>
	<path d="M98.49,29.28c-5.26,1.99-10.36-0.42-12.15-5.16c-1.88-4.97,0.69-10.46,6-12.47c5.12-1.93,10.21,0.3,11.98,5
		C106.14,21.49,104.09,27.16,98.49,29.28z M100.81,18.92c-1.65-4.38-4.85-7.64-8.52-6.25c-3.07,1.16-4.11,4.81-2.37,9.44
		c1.81,4.8,5.34,7.37,8.64,6.12C101.69,27.05,102.49,23.35,100.81,18.92z"/>
	<path d="M121.07,9.42l-1.6,0.32c-1.07-2.66-2.94-3.84-5.21-3.39c-1.81,0.36-2.94,1.68-2.62,3.26c0.25,1.26,1.17,1.83,3.26,2.38
		c2.21,0.58,4.44,1.16,6.15,2.08c1.44,0.79,2.48,1.71,2.81,3.33c0.51,2.55-1.16,5.35-5.86,6.29c-2.55,0.51-4.76,0.49-6.78,0.01
		l-1.1-4.05l1.73-0.34c1.42,2.94,3.18,4.01,5.69,3.51c2.3-0.46,3.32-1.79,2.97-3.54c-0.1-0.49-0.45-1.57-1.77-2.14
		c-2.44-1.07-5.25-1.18-7.7-2.47c-1.61-0.83-2.22-1.97-2.42-3.01c-0.54-2.73,1.11-5.37,5.52-6.25c2.17-0.43,3.58-0.34,5.98,0.29
		L121.07,9.42z"/>
	<path d="M139.95,15.7c-1.81,0.03-3.42-1.42-3.45-3.34c-0.03-1.87,1.44-3.42,3.34-3.45c1.87-0.03,3.42,1.47,3.45,3.34
		C143.32,14.12,141.82,15.67,139.95,15.7z"/>
</g>
</svg>
