<?xml version="1.0" encoding="utf-8"?><!--Generator: Adobe Illustrator 26.0.3, SVG Export Plug-In . SVG Version: 6.00 Build 0)--><svg xmlns="http://www.w3.org/2000/svg" viewBox="0 0 154 32" style="enable-background:new 0 0 154 32" xml:space="preserve"><path d="M19.67 2.36c5.2 0 8.4 3.24 8.4 7.68 0 4.36-3.68 7.52-9.44 7.52-2.8 0-4.84-.32-4.84-1.12 0-.64.2-.88.64-.88.52 0 .92.04 1.8.04 3.92 0 5.76-1.88 5.76-5.2 0-4.24-2.88-6.6-6.92-6.6h-3.56v20.84c0 2.84 1.08 3.56 3.36 3.56h1.16v1.44H1.92V28.2h.76c2.6 0 3.44-.92 3.44-3.56V7.36c0-2.68-.96-3.56-3.24-3.56h-.96V2.36h17.75zM47.27 2.36c5.68 0 9.4 2.76 9.4 6.96 0 3.68-3 6.4-7.48 7.16 1.24 1.4 2.64 3.32 4.52 5.92 3.88 5.32 4.48 5.8 6.12 5.8h.48v1.44h-7.16c-2-1.64-4.16-4.96-6.72-8.72-.72-1.08-1.44-1.96-1.96-2.52-.96-1-1.48-1.2-3.08-1.2h-1.4v7.64c0 2.52.96 3.36 3.52 3.36h.76v1.44h-13.8V28.2h.8c2.6 0 3.32-1.08 3.32-3.68V7.28c0-2.76-1.08-3.48-3.76-3.48h-.36V2.36h16.8zm-4.6 13.4c5.08 0 7.92-1.64 7.92-5.72 0-3.92-2.76-6.24-7.08-6.24h-3.52v11.96h2.68zM76.11 30.2c-8.56 0-14.52-6.16-14.52-13.88 0-8.08 6.6-14.52 15.24-14.52 8.32 0 14.36 5.92 14.36 13.56 0 7.88-5.96 14.84-15.08 14.84zm8.88-13.48c0-7.12-2.8-13.48-8.76-13.48-5 0-8.44 4.64-8.44 12.16 0 7.8 3.64 13.36 9 13.36 5.08 0 8.2-4.84 8.2-12.04zM110.27 30.2c-8.56 0-14.52-6.16-14.52-13.88 0-8.08 6.6-14.52 15.24-14.52 8.32 0 14.36 5.92 14.36 13.56 0 7.88-5.96 14.84-15.08 14.84zm8.88-13.48c0-7.12-2.8-13.48-8.76-13.48-5 0-8.44 4.64-8.44 12.16 0 7.8 3.64 13.36 9 13.36 5.08 0 8.2-4.84 8.2-12.04zM152.75 2.36V8.2h-2.32c-1.28-3-3.12-4.4-5.84-4.4h-6.2v11.12h4.32c2.84 0 4.16-.92 4.52-4h2.24v9.4h-2.24c-.32-3-1.84-3.96-4.52-3.96h-4.32v8.36c0 2.36.8 3.52 3.28 3.52.16 0 .56-.04.84-.04v1.44h-13.64V28.2h.4c1.52 0 2.44-.28 2.92-.76.52-.52.8-1.52.8-2.96V7.32c0-2.56-.84-3.52-3.4-3.52h-.72V2.36h23.88z"/></svg>